<svg width="14" height="16" viewBox="0 0 14 16" fill="none" xmlns="http://www.w3.org/2000/svg">
<g clip-path="url(#clip0_240_1477)">
<path d="M8.04844 14.0623L7.35469 14.774C7.06094 15.0753 6.58594 15.0753 6.29531 14.774L0.220312 8.545C-0.0734375 8.24365 -0.0734375 7.75636 0.220312 7.45821L6.29531 1.22601C6.58906 0.924662 7.06406 0.924662 7.35469 1.22601L8.04844 1.93771C8.34531 2.24227 8.33906 2.73918 8.03594 3.03733L4.27031 6.71766H13.2516C13.6672 6.71766 14.0016 7.06068 14.0016 7.48706V8.51294C14.0016 8.93932 13.6672 9.28235 13.2516 9.28235H4.27031L8.03594 12.9627C8.34219 13.2608 8.34844 13.7577 8.04844 14.0623Z" fill="#46548C"/>
</g>
<defs>
<clipPath id="clip0_240_1477">
<rect width="14" height="16" fill="white"/>
</clipPath>
</defs>
</svg>
