<svg width="82" height="82" viewBox="0 0 82 82" fill="none" xmlns="http://www.w3.org/2000/svg">
<g filter="url(#filter0_d_596_2644)">
<circle cx="41" cy="31" r="16" fill="white"/>
</g>
<path d="M44.6685 30.2673H39.1025L41.5225 27.8547C41.6606 27.7166 41.7381 27.5293 41.7381 27.334C41.7381 27.1387 41.6606 26.9514 41.5225 26.8133C41.3844 26.6752 41.1971 26.5977 41.0018 26.5977C40.8065 26.5977 40.6192 26.6752 40.4811 26.8133L36.8145 30.48C36.7477 30.5497 36.6954 30.632 36.6605 30.722C36.5871 30.9005 36.5871 31.1008 36.6605 31.2793C36.6954 31.3693 36.7477 31.4516 36.8145 31.5213L40.4811 35.188C40.5493 35.2567 40.6304 35.3113 40.7198 35.3485C40.8092 35.3857 40.905 35.4049 41.0018 35.4049C41.0986 35.4049 41.1945 35.3857 41.2838 35.3485C41.3732 35.3113 41.4543 35.2567 41.5225 35.188C41.5912 35.1198 41.6458 35.0387 41.683 34.9493C41.7202 34.86 41.7394 34.7641 41.7394 34.6673C41.7394 34.5705 41.7202 34.4747 41.683 34.3853C41.6458 34.2959 41.5912 34.2148 41.5225 34.1467L39.1025 31.734H44.6685C44.863 31.734 45.0495 31.6567 45.187 31.5192C45.3245 31.3817 45.4018 31.1951 45.4018 31.0007C45.4018 30.8062 45.3245 30.6196 45.187 30.4821C45.0495 30.3446 44.863 30.2673 44.6685 30.2673Z" fill="#477DB3"/>
<defs>
<filter id="filter0_d_596_2644" x="0" y="0" width="82" height="82" filterUnits="userSpaceOnUse" color-interpolation-filters="sRGB">
<feFlood flood-opacity="0" result="BackgroundImageFix"/>
<feColorMatrix in="SourceAlpha" type="matrix" values="0 0 0 0 0 0 0 0 0 0 0 0 0 0 0 0 0 0 127 0" result="hardAlpha"/>
<feOffset dy="10"/>
<feGaussianBlur stdDeviation="12.5"/>
<feColorMatrix type="matrix" values="0 0 0 0 0.592157 0 0 0 0 0.560784 0 0 0 0 0.686275 0 0 0 0.08 0"/>
<feBlend mode="normal" in2="BackgroundImageFix" result="effect1_dropShadow_596_2644"/>
<feBlend mode="normal" in="SourceGraphic" in2="effect1_dropShadow_596_2644" result="shape"/>
</filter>
</defs>
</svg>
