<svg width="20" height="20" viewBox="0 0 20 20" fill="none" xmlns="http://www.w3.org/2000/svg">
<path d="M4.16602 15.0003H7.69935C7.80902 15.0009 7.91774 14.9799 8.01927 14.9384C8.1208 14.8969 8.21315 14.8358 8.29102 14.7586L14.0577 8.98361L16.4243 6.66694C16.5025 6.58947 16.5645 6.4973 16.6068 6.39576C16.6491 6.29421 16.6708 6.18528 16.6708 6.07527C16.6708 5.96526 16.6491 5.85634 16.6068 5.75479C16.5645 5.65324 16.5025 5.56108 16.4243 5.48361L12.891 1.90861C12.8135 1.8305 12.7214 1.76851 12.6198 1.7262C12.5183 1.68389 12.4094 1.66211 12.2993 1.66211C12.1893 1.66211 12.0804 1.68389 11.9789 1.7262C11.8773 1.76851 11.7852 1.8305 11.7077 1.90861L9.35768 4.26694L3.57435 10.0419C3.49711 10.1198 3.43601 10.2122 3.39454 10.3137C3.35307 10.4152 3.33205 10.5239 3.33268 10.6336V14.1669C3.33268 14.388 3.42048 14.5999 3.57676 14.7562C3.73304 14.9125 3.945 15.0003 4.16602 15.0003ZM12.2993 3.67527L14.6577 6.03361L13.4743 7.21694L11.116 4.85861L12.2993 3.67527ZM4.99935 10.9753L9.94102 6.03361L12.2993 8.39194L7.35768 13.3336H4.99935V10.9753ZM17.4993 16.6669H2.49935C2.27834 16.6669 2.06637 16.7547 1.91009 16.911C1.75381 17.0673 1.66602 17.2793 1.66602 17.5003C1.66602 17.7213 1.75381 17.9333 1.91009 18.0895C2.06637 18.2458 2.27834 18.3336 2.49935 18.3336H17.4993C17.7204 18.3336 17.9323 18.2458 18.0886 18.0895C18.2449 17.9333 18.3327 17.7213 18.3327 17.5003C18.3327 17.2793 18.2449 17.0673 18.0886 16.911C17.9323 16.7547 17.7204 16.6669 17.4993 16.6669Z" fill="#477DB3"/>
</svg>
