<svg width="12" height="12" viewBox="0 0 12 12" fill="none" xmlns="http://www.w3.org/2000/svg">
<path d="M7.93985 5.99891L10.851 3.08778C11.2082 2.73054 11.2082 2.15134 10.851 1.79382L10.204 1.14683C9.84676 0.789597 9.26756 0.789597 8.91003 1.14683L5.99891 4.05796L3.08778 1.14683C2.73054 0.789597 2.15134 0.789597 1.79382 1.14683L1.14683 1.79382C0.789597 2.15105 0.789597 2.73025 1.14683 3.08778L4.05796 5.99891L1.14683 8.91003C0.789597 9.26727 0.789597 9.84647 1.14683 10.204L1.79382 10.851C2.15105 11.2082 2.73054 11.2082 3.08778 10.851L5.99891 7.93985L8.91003 10.851C9.26727 11.2082 9.84676 11.2082 10.204 10.851L10.851 10.204C11.2082 9.84676 11.2082 9.26756 10.851 8.91003L7.93985 5.99891Z" fill="#748CAD"/>
</svg>
