<svg width="21" height="20" viewBox="0 0 21 20" fill="none" xmlns="http://www.w3.org/2000/svg">
<path d="M4.66602 15.0003H8.19935C8.30902 15.0009 8.41774 14.9799 8.51927 14.9384C8.6208 14.8969 8.71315 14.8358 8.79102 14.7586L14.5577 8.98361L16.9243 6.66694C17.0025 6.58947 17.0645 6.4973 17.1068 6.39576C17.1491 6.29421 17.1708 6.18528 17.1708 6.07527C17.1708 5.96526 17.1491 5.85634 17.1068 5.75479C17.0645 5.65324 17.0025 5.56108 16.9243 5.48361L13.391 1.90861C13.3135 1.8305 13.2214 1.76851 13.1198 1.7262C13.0183 1.68389 12.9094 1.66211 12.7993 1.66211C12.6893 1.66211 12.5804 1.68389 12.4789 1.7262C12.3773 1.76851 12.2852 1.8305 12.2077 1.90861L9.85768 4.26694L4.07435 10.0419C3.99711 10.1198 3.93601 10.2122 3.89454 10.3137C3.85307 10.4152 3.83205 10.5239 3.83268 10.6336V14.1669C3.83268 14.388 3.92048 14.5999 4.07676 14.7562C4.23304 14.9125 4.445 15.0003 4.66602 15.0003ZM12.7993 3.67527L15.1577 6.03361L13.9743 7.21694L11.616 4.85861L12.7993 3.67527ZM5.49935 10.9753L10.441 6.03361L12.7993 8.39194L7.85768 13.3336H5.49935V10.9753ZM17.9993 16.6669H2.99935C2.77834 16.6669 2.56637 16.7547 2.41009 16.911C2.25381 17.0673 2.16602 17.2793 2.16602 17.5003C2.16602 17.7213 2.25381 17.9333 2.41009 18.0895C2.56637 18.2458 2.77834 18.3336 2.99935 18.3336H17.9993C18.2204 18.3336 18.4323 18.2458 18.5886 18.0895C18.7449 17.9333 18.8327 17.7213 18.8327 17.5003C18.8327 17.2793 18.7449 17.0673 18.5886 16.911C18.4323 16.7547 18.2204 16.6669 17.9993 16.6669Z" fill="#FCFCFC"/>
</svg>
