<svg width="124" height="108" viewBox="0 0 124 108" fill="none" xmlns="http://www.w3.org/2000/svg">
<path d="M28.9339 21.9966C30.2813 21.9966 31.3736 20.9036 31.3736 19.5554C31.3736 18.2072 30.2813 17.1143 28.9339 17.1143C27.5864 17.1143 26.4941 18.2072 26.4941 19.5554C26.4941 20.9036 27.5864 21.9966 28.9339 21.9966Z" fill="#EAEEF9"/>
<path d="M95.7054 29.4477C97.0528 29.4477 98.1451 28.3548 98.1451 27.0066C98.1451 25.6584 97.0528 24.5654 95.7054 24.5654C94.3579 24.5654 93.2656 25.6584 93.2656 27.0066C93.2656 28.3548 94.3579 29.4477 95.7054 29.4477Z" fill="#EAEEF9"/>
<path d="M33.8791 13.7095C34.411 13.7095 34.8421 13.278 34.8421 12.7458C34.8421 12.2137 34.411 11.7822 33.8791 11.7822C33.3472 11.7822 32.916 12.2137 32.916 12.7458C32.916 13.278 33.3472 13.7095 33.8791 13.7095Z" fill="#EAEEF9"/>
<path d="M92.8808 19.1055C93.4481 19.1055 93.908 18.6453 93.908 18.0777C93.908 17.51 93.4481 17.0498 92.8808 17.0498C92.3134 17.0498 91.8535 17.51 91.8535 18.0777C91.8535 18.6453 92.3134 19.1055 92.8808 19.1055Z" fill="#EAEEF9"/>
<path d="M61.8062 76.6649C81.3084 76.6649 97.1182 60.846 97.1182 41.3325C97.1182 21.8189 81.3084 6 61.8062 6C42.3039 6 26.4941 21.8189 26.4941 41.3325C26.4941 60.846 42.3039 76.6649 61.8062 76.6649Z" fill="#EAEEF9"/>
<g filter="url(#filter0_d_493_4408)">
<path d="M71.6941 61.5681L41.0048 73.9666C40.4912 74.1593 39.9133 73.9023 39.7207 73.4526L22.0647 29.5762C21.8721 29.0622 22.1289 28.4841 22.5783 28.2913L53.2677 15.8929C53.7813 15.7001 54.3591 15.9571 54.5518 16.4068L72.2078 60.219C72.4646 60.7972 72.2078 61.3754 71.6941 61.5681Z" fill="white"/>
</g>
<path d="M58.1473 35.6148L32.4658 45.9576C32.209 46.0861 31.9522 45.9576 31.8238 45.7006C31.6954 45.4437 31.8238 45.1867 32.0806 45.0582L57.6979 34.7154C57.9547 34.587 58.2115 34.7154 58.3399 34.9724C58.4683 35.2294 58.3399 35.4863 58.1473 35.6148Z" fill="#E6EDF5"/>
<path d="M59.1105 38.1207L33.4932 48.4634C33.2364 48.5919 32.9796 48.4634 32.8512 48.2065C32.7227 47.9495 32.8512 47.6926 33.108 47.5641L58.7252 37.2213C58.982 37.0928 59.2389 37.2213 59.3673 37.4783C59.4957 37.7352 59.3673 37.9922 59.1105 38.1207Z" fill="#E6EDF5"/>
<path d="M60.1378 40.5613L34.5205 50.9683C34.2637 51.0968 34.0069 50.9683 33.8785 50.7114C33.7501 50.4544 33.8785 50.1974 34.1353 50.069L59.7526 39.7262C60.0094 39.5977 60.2662 39.7262 60.3946 39.9831C60.523 40.1759 60.3946 40.4971 60.1378 40.5613Z" fill="#E6EDF5"/>
<path d="M45.1784 49.5552L35.5479 53.4739C35.2911 53.6024 35.0343 53.4739 34.9058 53.217C34.7774 52.96 34.9058 52.703 35.1627 52.5746L44.7932 48.6559C45.05 48.5274 45.3068 48.6559 45.4352 48.9128C45.4994 49.1698 45.4352 49.4268 45.1784 49.5552Z" fill="#E6EDF5"/>
<path d="M63.4756 46.9198L64.3103 49.0398C64.4387 49.4252 64.3103 49.8749 63.9251 50.0034L38.5646 60.2819C38.1794 60.4104 37.73 60.2819 37.6015 59.8965L36.7669 57.7123C36.6385 57.3268 36.7669 56.8772 37.1521 56.7487L62.5126 46.5344C62.8978 46.4059 63.283 46.5986 63.4756 46.9198Z" fill="#E3EAF2"/>
<path d="M65.4656 51.8026L66.3003 53.9226C66.4287 54.308 66.3003 54.7577 65.915 54.8862L40.5546 65.1647C40.1694 65.2932 39.7199 65.1647 39.5915 64.7793L38.6927 62.5951C38.5643 62.2097 38.6927 61.76 39.0779 61.6315L64.4384 51.4172C64.8236 51.2887 65.273 51.4814 65.4656 51.8026Z" fill="#E3EAF2"/>
<path d="M67.3916 56.6852L68.2263 58.8052C68.3547 59.1906 68.2263 59.6403 67.8411 59.7688L42.4806 70.0473C42.0954 70.1758 41.646 70.0473 41.5176 69.6619L40.6829 67.5419C40.5545 67.1565 40.6829 66.7068 41.0681 66.5783L66.4286 56.364C66.8138 56.1713 67.2632 56.364 67.3916 56.6852Z" fill="#E3EAF2"/>
<path d="M39.7845 55.7217L41.197 59.2549L38.5646 60.2828C38.1794 60.4113 37.73 60.2828 37.6015 59.8973L36.7669 57.7131C36.6385 57.3277 36.7669 56.878 37.1521 56.7495L39.7845 55.7217Z" fill="#989FB0"/>
<path d="M39.1414 61.6322L46.8458 58.4844L48.2583 62.0176L40.5539 65.1654C40.1686 65.2939 39.7192 65.1654 39.5908 64.78L38.692 62.5958C38.5636 62.2746 38.7562 61.8249 39.1414 61.6322Z" fill="#B4BACA"/>
<path d="M41.0681 66.5141L42.1596 66.0645L43.5721 69.5977L42.4806 70.0474C42.0954 70.1759 41.646 70.0474 41.5176 69.6619L40.6829 67.542C40.5545 67.1565 40.6829 66.7069 41.0681 66.5141Z" fill="#B4BACA"/>
<path d="M41.4511 33.4299C41.3869 29.8967 38.4977 27.0059 34.9023 27.0059H34.8381C31.2427 27.0059 28.3535 29.9609 28.3535 33.5584C28.4177 37.1559 31.3711 40.0467 34.9665 40.0467C36.9568 40.0467 38.6903 39.1474 39.9102 37.7983C40.9374 36.642 41.5153 35.1644 41.5153 33.4942C41.4511 33.4942 41.4511 33.4942 41.4511 33.4299ZM34.9665 37.991C32.5268 37.991 30.5364 35.9996 30.5364 33.5584C30.5364 31.1173 32.5268 29.1258 34.9665 29.1258H35.0307C37.4704 29.1258 39.3965 31.053 39.4607 33.4299C39.4607 33.4942 39.4607 33.4942 39.4607 33.5584C39.4607 34.6505 39.0755 35.6784 38.3693 36.4493C37.4704 37.4129 36.3148 37.991 34.9665 37.991Z" fill="#E6EDF5"/>
<path d="M41.4531 33.4299H39.3343C39.3343 31.053 37.344 29.1258 34.9685 29.1258H34.9043V27.0059H34.9685C38.4997 27.0059 41.3889 29.8967 41.4531 33.4299Z" fill="#989FB0"/>
<g filter="url(#filter1_d_493_4408)">
<path d="M84.2166 71.5247L53.2062 59.9614C52.6926 59.7686 52.4358 59.1905 52.6284 58.6765L69.0645 14.4146C69.2572 13.9007 69.835 13.6437 70.3486 13.8364L101.359 25.3356C101.873 25.5283 102.129 26.1064 101.937 26.6204L85.5007 70.9465C85.3081 71.4605 84.7302 71.7174 84.2166 71.5247Z" fill="white"/>
</g>
<path opacity="0.4" d="M80.1055 33.7514L77.6016 32.7877L79.6561 27.0703L82.16 27.9697L80.1055 33.7514Z" fill="#E6EDF5"/>
<path d="M83.5096 34.9718L80.9414 34.0082L84.0874 25.2715L86.5913 26.2351L83.5096 34.9718Z" fill="#B4BACA"/>
<path d="M90.25 37.3487L87.7461 36.4493L91.8551 24.9502L94.4233 25.8496L90.25 37.3487Z" fill="#B4BACA"/>
<path opacity="0.4" d="M93.461 38.5052L90.957 37.6058L92.0485 34.458L94.6166 35.4216L93.461 38.5052Z" fill="#E6EDF5"/>
<path d="M91.6604 43.1942L65.7221 33.5581C65.4653 33.4939 65.3369 33.1727 65.4011 32.9157C65.4653 32.6587 65.7863 32.5303 66.0432 32.5945L91.9814 42.2306C92.2383 42.2949 92.3667 42.6161 92.3025 42.873C92.1741 43.13 91.9172 43.2585 91.6604 43.1942Z" fill="#E6EDF5"/>
<path d="M90.6995 45.7001L64.7612 36.064C64.5044 35.9997 64.376 35.6785 64.4402 35.4216C64.5044 35.1646 64.8254 35.0361 65.0822 35.1004L91.0205 44.7365C91.2773 44.8007 91.4057 45.1219 91.3415 45.3789C91.2773 45.6359 90.9563 45.8286 90.6995 45.7001Z" fill="#E6EDF5"/>
<path d="M89.8011 48.205L63.8628 38.5689C63.606 38.5046 63.4775 38.1834 63.5418 37.9264C63.606 37.6695 63.927 37.541 64.1838 37.6052L90.1221 47.2414C90.3789 47.3056 90.5073 47.6268 90.4431 47.8838C90.3147 48.205 90.0579 48.3335 89.8011 48.205Z" fill="#E6EDF5"/>
<path d="M72.7233 44.7366L62.9643 41.1392C62.7075 41.0749 62.5791 40.7537 62.6433 40.4968C62.7075 40.2398 63.0285 40.1113 63.2854 40.1756L73.0443 43.773C73.3011 43.8373 73.4295 44.1585 73.3653 44.4154C73.2369 44.6724 72.9801 44.8009 72.7233 44.7366Z" fill="#DDDDDD"/>
<path d="M88.0036 55.1425L87.2332 57.3267C87.1048 57.7122 86.6553 57.9049 86.2701 57.7764L80.7486 55.7207L60.5886 48.2045C60.2034 48.076 60.0108 47.6263 60.1392 47.2409L60.9097 45.0567C61.0381 44.6713 61.4875 44.4785 61.8727 44.607L81.9043 52.059L87.49 54.1147C87.9394 54.3716 88.132 54.7571 88.0036 55.1425Z" fill="#E6EDF5"/>
<path d="M86.1406 60.09L85.3701 62.2742C85.2417 62.6596 84.7923 62.8524 84.4071 62.7239L82.5452 62.0172L58.7898 53.2162C58.4046 53.0877 58.212 52.6381 58.3404 52.2526L59.1108 50.0684C59.2392 49.683 59.6887 49.4903 60.0739 49.6187L83.8935 58.484L85.6912 59.1906C86.0764 59.3191 86.269 59.7045 86.1406 60.09Z" fill="#E6EDF5"/>
<path d="M84.3437 65.0373L83.5733 67.2215C83.4449 67.6069 82.9954 67.7996 82.6102 67.6711L73.1081 64.1379L56.9929 58.1635C56.6077 58.035 56.4151 57.5853 56.5435 57.1999L57.314 55.0157C57.4424 54.6303 57.8918 54.4375 58.277 54.566L74.7774 60.6689L83.8943 64.0737C84.2795 64.2021 84.4721 64.6518 84.3437 65.0373Z" fill="#E6EDF5"/>
<path d="M58.277 54.5647L74.7774 60.6675L73.1081 64.0723L56.9929 58.0979C56.6077 57.9694 56.4151 57.5197 56.5435 57.1343L57.314 54.9501C57.4424 54.6289 57.8918 54.4362 58.277 54.5647Z" fill="#B4B9C9"/>
<path d="M60.1392 47.3063L60.9097 45.1221C61.0381 44.7367 61.4875 44.544 61.8727 44.6725L81.9043 52.1244L80.6202 55.6576L60.5886 48.2057C60.2034 48.0772 60.0108 47.6918 60.1392 47.3063Z" fill="#B4B9C9"/>
<path d="M83.8935 58.484L82.5452 62.0172L58.7898 53.2162C58.4046 53.0877 58.212 52.6381 58.3404 52.2526L59.1108 50.0684C59.2392 49.683 59.6887 49.4903 60.0739 49.6187L83.8935 58.484Z" fill="#B4B9C9"/>
<path d="M66.688 46.47L65.4039 50.0033L60.5886 48.2045C60.2034 48.076 60.0108 47.6263 60.1392 47.2409L60.9097 45.0567C61.0381 44.6713 61.4875 44.4785 61.8727 44.607L66.688 46.47Z" fill="#DDDDDD"/>
<path d="M60.0739 49.6193L64.8892 51.4181L63.6051 54.9513L58.7898 53.1526C58.4046 53.0241 58.212 52.5744 58.3404 52.189L59.1108 50.0048C59.3035 49.6836 59.6887 49.4909 60.0739 49.6193Z" fill="#DDDDDD"/>
<path d="M58.277 54.5647L63.0923 56.3634L61.8082 59.8966L56.9929 58.0979C56.6077 57.9694 56.4151 57.5197 56.5435 57.1343L57.314 54.9501C57.4424 54.6289 57.8918 54.4362 58.277 54.5647Z" fill="#DDDDDD"/>
<g filter="url(#filter2_d_493_4408)">
<path d="M78.692 60.7973H45.6271C45.1135 60.7973 44.6641 60.3477 44.6641 59.8337V12.5525C44.6641 12.0386 45.1135 11.5889 45.6271 11.5889H78.692C79.2056 11.5889 79.6551 12.0386 79.6551 12.5525V59.7695C79.7193 60.3476 79.2698 60.7973 78.692 60.7973Z" fill="white"/>
</g>
<path d="M75.8048 29.7685H48.1972C47.9404 29.7685 47.6836 29.5759 47.6836 29.2548C47.6836 28.998 47.8762 28.7412 48.1972 28.7412H75.8048C76.0616 28.7412 76.3184 28.9338 76.3184 29.2548C76.3184 29.5117 76.0616 29.7685 75.8048 29.7685Z" fill="#E6EDF5"/>
<path d="M75.8048 32.4013H48.1972C47.9404 32.4013 47.6836 32.2087 47.6836 31.8877C47.6836 31.6308 47.8762 31.374 48.1972 31.374H75.8048C76.0616 31.374 76.3184 31.5666 76.3184 31.8877C76.3184 32.2087 76.0616 32.4013 75.8048 32.4013Z" fill="#E6EDF5"/>
<path d="M75.8048 35.1005H48.1972C47.9404 35.1005 47.6836 34.9079 47.6836 34.5869C47.6836 34.3301 47.8762 34.0732 48.1972 34.0732H75.8048C76.0616 34.0732 76.3184 34.2659 76.3184 34.5869C76.3184 34.9079 76.0616 35.1005 75.8048 35.1005Z" fill="#E6EDF5"/>
<path d="M75.7392 45.1855H66.4296C66.1728 45.1855 65.916 44.9929 65.916 44.6718C65.916 44.415 66.1086 44.1582 66.4296 44.1582H75.7392C75.996 44.1582 76.2528 44.3508 76.2528 44.6718C76.1886 44.9286 75.996 45.1855 75.7392 45.1855Z" fill="#E6EDF5"/>
<path d="M60.7147 47.9495C60.6505 44.4162 57.7614 41.5254 54.166 41.5254H54.1018C50.5064 41.5254 47.6172 44.4805 47.6172 48.078C47.6172 51.6754 50.5706 54.6305 54.166 54.6305C56.1563 54.6305 57.8898 53.7311 59.1096 52.3821C60.1369 51.2258 60.7147 49.7482 60.7147 48.078C60.7147 48.0137 60.7147 47.9495 60.7147 47.9495ZM54.166 52.4463C51.7262 52.4463 49.7359 50.4549 49.7359 48.0137C49.7359 45.5726 51.7262 43.5811 54.166 43.5811H54.2302C56.6699 43.5811 58.596 45.5083 58.6602 47.8852C58.6602 47.9495 58.6602 47.9495 58.6602 48.0137C58.6602 49.1058 58.275 50.1337 57.5688 50.9046C56.6699 51.8682 55.5142 52.4463 54.166 52.4463Z" fill="#E6EDF5"/>
<path d="M60.7145 47.9495H58.5958C58.5316 45.5726 56.6055 43.6453 54.1658 43.6453H54.1016V41.5254H54.1658C57.7612 41.5254 60.6503 44.352 60.7145 47.9495Z" fill="#989FB0"/>
<path d="M60.7141 48.0144C60.7141 49.6847 60.1363 51.1622 59.109 52.3186L57.5039 50.9695C58.2101 50.1986 58.5954 49.1708 58.5954 48.0787C58.5954 48.0144 58.5954 48.0144 58.5954 47.9502H60.7141V48.0144Z" fill="#B4BACA"/>
<path d="M64.1828 45.3801C64.5728 45.3801 64.889 45.0637 64.889 44.6734C64.889 44.2832 64.5728 43.9668 64.1828 43.9668C63.7928 43.9668 63.4766 44.2832 63.4766 44.6734C63.4766 45.0637 63.7928 45.3801 64.1828 45.3801Z" fill="#E6EDF5"/>
<path d="M75.7392 48.1405H66.4296C66.1728 48.1405 65.916 47.9479 65.916 47.6269C65.916 47.3701 66.1086 47.1133 66.4296 47.1133H75.7392C75.996 47.1133 76.2528 47.3059 76.2528 47.6269C76.1886 47.8837 75.996 48.1405 75.7392 48.1405Z" fill="#E6EDF5"/>
<path d="M64.1828 48.3342C64.5728 48.3342 64.889 48.0178 64.889 47.6275C64.889 47.2373 64.5728 46.9209 64.1828 46.9209C63.7928 46.9209 63.4766 47.2373 63.4766 47.6275C63.4766 48.0178 63.7928 48.3342 64.1828 48.3342Z" fill="#B4BACA"/>
<path d="M75.7392 51.0966H66.4296C66.1728 51.0966 65.916 50.904 65.916 50.583C65.916 50.3262 66.1086 50.0693 66.4296 50.0693H75.7392C75.996 50.0693 76.2528 50.2619 76.2528 50.583C76.1886 50.8398 75.996 51.0966 75.7392 51.0966Z" fill="#E6EDF5"/>
<path d="M64.1828 51.2893C64.5728 51.2893 64.889 50.9729 64.889 50.5826C64.889 50.1924 64.5728 49.876 64.1828 49.876C63.7928 49.876 63.4766 50.1924 63.4766 50.5826C63.4766 50.9729 63.7928 51.2893 64.1828 51.2893Z" fill="#989FB0"/>
<path d="M47.873 26.2354H76.2511V14.7363L71.7568 16.9848L69.3813 18.655L65.1438 18.5908L61.42 20.518L58.2098 20.9677L57.0542 22.2525L53.7156 24.3725L50.4412 24.9506L47.873 26.2354Z" fill="#989FB0"/>
<path d="M47.873 26.2358H76.2511V17.499L71.7568 19.1693L69.3813 20.4541L65.1438 20.3899L61.42 21.8674L58.2098 22.2528L57.0542 23.1522L53.7156 24.8225L50.4412 25.2722L47.873 26.2358Z" fill="#E6EDF5"/>
<path d="M47.873 26.2356H76.2511V21.2891L71.7568 22.2527L69.3813 22.9593H65.1438L61.42 23.7302L58.2098 23.9872L57.0542 24.5011L53.7156 25.4005L50.4412 25.6574L47.873 26.2356Z" fill="#CED7E2"/>
<defs>
<filter id="filter0_d_493_4408" x="0" y="4.82812" width="94.3086" height="102.203" filterUnits="userSpaceOnUse" color-interpolation-filters="sRGB">
<feFlood flood-opacity="0" result="BackgroundImageFix"/>
<feColorMatrix in="SourceAlpha" type="matrix" values="0 0 0 0 0 0 0 0 0 0 0 0 0 0 0 0 0 0 127 0" result="hardAlpha"/>
<feOffset dy="11"/>
<feGaussianBlur stdDeviation="11"/>
<feColorMatrix type="matrix" values="0 0 0 0 0.397708 0 0 0 0 0.47749 0 0 0 0 0.575 0 0 0 0.18 0"/>
<feBlend mode="normal" in2="BackgroundImageFix" result="effect1_dropShadow_493_4408"/>
<feBlend mode="normal" in="SourceGraphic" in2="effect1_dropShadow_493_4408" result="shape"/>
</filter>
<filter id="filter1_d_493_4408" x="30.5645" y="2.77246" width="93.4355" height="101.816" filterUnits="userSpaceOnUse" color-interpolation-filters="sRGB">
<feFlood flood-opacity="0" result="BackgroundImageFix"/>
<feColorMatrix in="SourceAlpha" type="matrix" values="0 0 0 0 0 0 0 0 0 0 0 0 0 0 0 0 0 0 127 0" result="hardAlpha"/>
<feOffset dy="11"/>
<feGaussianBlur stdDeviation="11"/>
<feColorMatrix type="matrix" values="0 0 0 0 0.397708 0 0 0 0 0.47749 0 0 0 0 0.575 0 0 0 0.18 0"/>
<feBlend mode="normal" in2="BackgroundImageFix" result="effect1_dropShadow_493_4408"/>
<feBlend mode="normal" in="SourceGraphic" in2="effect1_dropShadow_493_4408" result="shape"/>
</filter>
<filter id="filter2_d_493_4408" x="22.6641" y="0.588867" width="78.998" height="93.208" filterUnits="userSpaceOnUse" color-interpolation-filters="sRGB">
<feFlood flood-opacity="0" result="BackgroundImageFix"/>
<feColorMatrix in="SourceAlpha" type="matrix" values="0 0 0 0 0 0 0 0 0 0 0 0 0 0 0 0 0 0 127 0" result="hardAlpha"/>
<feOffset dy="11"/>
<feGaussianBlur stdDeviation="11"/>
<feColorMatrix type="matrix" values="0 0 0 0 0.397708 0 0 0 0 0.47749 0 0 0 0 0.575 0 0 0 0.18 0"/>
<feBlend mode="normal" in2="BackgroundImageFix" result="effect1_dropShadow_493_4408"/>
<feBlend mode="normal" in="SourceGraphic" in2="effect1_dropShadow_493_4408" result="shape"/>
</filter>
</defs>
</svg>
