<svg width="16" height="17" viewBox="0 0 16 17" fill="none" xmlns="http://www.w3.org/2000/svg">
<path d="M13.274 10.8397H10.254C10.0772 10.8397 9.9076 10.9099 9.78258 11.0349C9.65756 11.16 9.58732 11.3295 9.58732 11.5063C9.58732 11.6832 9.65756 11.8527 9.78258 11.9777C9.9076 12.1028 10.0772 12.173 10.254 12.173H11.854C11.1186 12.9415 10.1703 13.4726 9.13076 13.6979C8.09127 13.9233 7.00812 13.8327 6.0205 13.4378C5.03288 13.0429 4.1859 12.3617 3.58838 11.4818C2.99086 10.6018 2.6701 9.56332 2.66732 8.49967C2.66732 8.32286 2.59708 8.15329 2.47206 8.02827C2.34703 7.90325 2.17746 7.83301 2.00065 7.83301C1.82384 7.83301 1.65427 7.90325 1.52925 8.02827C1.40422 8.15329 1.33398 8.32286 1.33398 8.49967C1.33751 9.80154 1.72213 11.0739 2.44039 12.1597C3.15864 13.2455 4.17909 14.0972 5.37581 14.6098C6.57253 15.1224 7.89314 15.2734 9.17466 15.0441C10.4562 14.8148 11.6425 14.2154 12.5873 13.3197V14.4997C12.5873 14.6765 12.6576 14.8461 12.7826 14.9711C12.9076 15.0961 13.0772 15.1663 13.254 15.1663C13.4308 15.1663 13.6004 15.0961 13.7254 14.9711C13.8504 14.8461 13.9207 14.6765 13.9207 14.4997V11.4997C13.919 11.3274 13.8508 11.1625 13.7302 11.0395C13.6097 10.9164 13.4462 10.8448 13.274 10.8397ZM10.0007 8.49967C10.0007 8.10411 9.88335 7.71743 9.66359 7.38853C9.44383 7.05964 9.13147 6.80329 8.76602 6.65192C8.40057 6.50054 7.99843 6.46093 7.61047 6.5381C7.22251 6.61527 6.86614 6.80576 6.58644 7.08546C6.30673 7.36517 6.11625 7.72153 6.03908 8.10949C5.96191 8.49746 6.00152 8.89959 6.15289 9.26504C6.30427 9.63049 6.56061 9.94285 6.88951 10.1626C7.21841 10.3824 7.60509 10.4997 8.00065 10.4997C8.53108 10.4997 9.03979 10.289 9.41487 9.91389C9.78994 9.53882 10.0007 9.03011 10.0007 8.49967ZM7.33398 8.49967C7.33398 8.36782 7.37308 8.23893 7.44634 8.12929C7.51959 8.01966 7.62371 7.93421 7.74553 7.88375C7.86735 7.8333 8.00139 7.82009 8.13071 7.84582C8.26003 7.87154 8.37882 7.93504 8.47206 8.02827C8.56529 8.12151 8.62878 8.24029 8.65451 8.36961C8.68023 8.49894 8.66703 8.63298 8.61657 8.7548C8.56611 8.87661 8.48066 8.98073 8.37103 9.05399C8.2614 9.12724 8.13251 9.16634 8.00065 9.16634C7.82384 9.16634 7.65427 9.0961 7.52925 8.97108C7.40422 8.84606 7.33398 8.67649 7.33398 8.49967ZM8.00065 1.83301C6.29157 1.83788 4.64964 2.49895 3.41398 3.67967V2.49967C3.41398 2.32286 3.34375 2.15329 3.21872 2.02827C3.0937 1.90325 2.92413 1.83301 2.74732 1.83301C2.57051 1.83301 2.40094 1.90325 2.27591 2.02827C2.15089 2.15329 2.08065 2.32286 2.08065 2.49967V5.49967C2.08065 5.67649 2.15089 5.84605 2.27591 5.97108C2.40094 6.0961 2.57051 6.16634 2.74732 6.16634H5.74732C5.92413 6.16634 6.0937 6.0961 6.21872 5.97108C6.34375 5.84605 6.41398 5.67649 6.41398 5.49967C6.41398 5.32286 6.34375 5.15329 6.21872 5.02827C6.0937 4.90325 5.92413 4.83301 5.74732 4.83301H4.14732C4.88229 4.06492 5.83004 3.53401 6.86892 3.30841C7.90779 3.08282 8.99038 3.17284 9.97772 3.56692C10.9651 3.96099 11.8121 4.64115 12.4101 5.52008C13.0082 6.399 13.3299 7.4366 13.334 8.49967C13.334 8.67649 13.4042 8.84606 13.5292 8.97108C13.6543 9.0961 13.8238 9.16634 14.0007 9.16634C14.1775 9.16634 14.347 9.0961 14.4721 8.97108C14.5971 8.84606 14.6673 8.67649 14.6673 8.49967C14.6673 7.6242 14.4949 6.75729 14.1598 5.94845C13.8248 5.13961 13.3338 4.40469 12.7147 3.78563C12.0956 3.16657 11.3607 2.67551 10.5519 2.34048C9.74304 2.00545 8.87613 1.83301 8.00065 1.83301Z" fill="white"/>
</svg>
