<svg width="17" height="16" viewBox="0 0 17 16" fill="none" xmlns="http://www.w3.org/2000/svg">
<path d="M7.16667 11.9997C7.34348 11.9997 7.51305 11.9294 7.63807 11.8044C7.7631 11.6794 7.83333 11.5098 7.83333 11.333V7.33301C7.83333 7.1562 7.7631 6.98663 7.63807 6.8616C7.51305 6.73658 7.34348 6.66634 7.16667 6.66634C6.98986 6.66634 6.82029 6.73658 6.69526 6.8616C6.57024 6.98663 6.5 7.1562 6.5 7.33301V11.333C6.5 11.5098 6.57024 11.6794 6.69526 11.8044C6.82029 11.9294 6.98986 11.9997 7.16667 11.9997ZM13.8333 3.99967H11.1667V3.33301C11.1667 2.80257 10.956 2.29387 10.5809 1.91879C10.2058 1.54372 9.6971 1.33301 9.16667 1.33301H7.83333C7.3029 1.33301 6.79419 1.54372 6.41912 1.91879C6.04405 2.29387 5.83333 2.80257 5.83333 3.33301V3.99967H3.16667C2.98986 3.99967 2.82029 4.06991 2.69526 4.19494C2.57024 4.31996 2.5 4.48953 2.5 4.66634C2.5 4.84315 2.57024 5.01272 2.69526 5.13775C2.82029 5.26277 2.98986 5.33301 3.16667 5.33301H3.83333V12.6663C3.83333 13.1968 4.04405 13.7055 4.41912 14.0806C4.79419 14.4556 5.3029 14.6663 5.83333 14.6663H11.1667C11.6971 14.6663 12.2058 14.4556 12.5809 14.0806C12.956 13.7055 13.1667 13.1968 13.1667 12.6663V5.33301H13.8333C14.0101 5.33301 14.1797 5.26277 14.3047 5.13775C14.4298 5.01272 14.5 4.84315 14.5 4.66634C14.5 4.48953 14.4298 4.31996 14.3047 4.19494C14.1797 4.06991 14.0101 3.99967 13.8333 3.99967ZM7.16667 3.33301C7.16667 3.1562 7.2369 2.98663 7.36193 2.8616C7.48695 2.73658 7.65652 2.66634 7.83333 2.66634H9.16667C9.34348 2.66634 9.51305 2.73658 9.63807 2.8616C9.7631 2.98663 9.83333 3.1562 9.83333 3.33301V3.99967H7.16667V3.33301ZM11.8333 12.6663C11.8333 12.8432 11.7631 13.0127 11.6381 13.1377C11.513 13.2628 11.3435 13.333 11.1667 13.333H5.83333C5.65652 13.333 5.48695 13.2628 5.36193 13.1377C5.2369 13.0127 5.16667 12.8432 5.16667 12.6663V5.33301H11.8333V12.6663ZM9.83333 11.9997C10.0101 11.9997 10.1797 11.9294 10.3047 11.8044C10.4298 11.6794 10.5 11.5098 10.5 11.333V7.33301C10.5 7.1562 10.4298 6.98663 10.3047 6.8616C10.1797 6.73658 10.0101 6.66634 9.83333 6.66634C9.65652 6.66634 9.48695 6.73658 9.36193 6.8616C9.23691 6.98663 9.16667 7.1562 9.16667 7.33301V11.333C9.16667 11.5098 9.23691 11.6794 9.36193 11.8044C9.48695 11.9294 9.65652 11.9997 9.83333 11.9997Z" fill="#FF554A"/>
</svg>
