<svg width="32" height="32" viewBox="0 0 32 32" fill="none" xmlns="http://www.w3.org/2000/svg">
<rect width="32" height="32" rx="6" fill="#F5F5F7"/>
<path opacity="0.4" d="M11.1468 18.911C10.9753 19.0827 10.8789 19.3154 10.8789 19.558C10.8789 19.8007 10.9753 20.0334 11.1468 20.205L11.7938 20.852C11.9654 21.0235 12.1981 21.1199 12.4408 21.1199C12.6834 21.1199 12.9161 21.0235 13.0878 20.852L15.9989 17.9408L14.0579 15.9999L11.1468 18.911ZM20.851 11.7948L20.204 11.1478C20.0324 10.9762 19.7997 10.8799 19.557 10.8799C19.3144 10.8799 19.0817 10.9762 18.9101 11.1478L15.9989 14.0589L17.9399 15.9999L20.851 13.0887C21.0225 12.9171 21.1189 12.6844 21.1189 12.4418C21.1189 12.1991 21.0225 11.9664 20.851 11.7948Z" fill="#748CAD"/>
<path d="M20.851 18.911C21.0225 19.0827 21.1189 19.3154 21.1189 19.558C21.1189 19.8007 21.0225 20.0334 20.851 20.205L20.204 20.852C20.0324 21.0235 19.7997 21.1199 19.557 21.1199C19.3144 21.1199 19.0817 21.0235 18.9101 20.852L11.1468 13.0887C10.9753 12.9171 10.8789 12.6844 10.8789 12.4418C10.8789 12.1991 10.9753 11.9664 11.1468 11.7948L11.7938 11.1478C11.9654 10.9762 12.1981 10.8799 12.4408 10.8799C12.6834 10.8799 12.9161 10.9762 13.0878 11.1478L20.851 18.911Z" fill="#748CAD"/>
<path d="M17.9399 15.9999L20.851 13.0888C21.2082 12.7315 21.2082 12.1523 20.851 11.7948L20.204 11.1478C19.8468 10.7906 19.2676 10.7906 18.91 11.1478L15.9989 14.0589L13.0878 11.1478C12.7305 10.7906 12.1513 10.7906 11.7938 11.1478L11.1468 11.7948C10.7896 12.152 10.7896 12.7312 11.1468 13.0888L14.058 15.9999L11.1468 18.911C10.7896 19.2682 10.7896 19.8474 11.1468 20.205L11.7938 20.852C12.1511 21.2092 12.7305 21.2092 13.0878 20.852L15.9989 17.9408L18.91 20.852C19.2673 21.2092 19.8468 21.2092 20.204 20.852L20.851 20.205C21.2082 19.8477 21.2082 19.2685 20.851 18.911L17.9399 15.9999Z" fill="#748CAD"/>
</svg>
